<svg width="512" height="512" viewBox="0 0 512 512" fill="none" xmlns="http://www.w3.org/2000/svg">
<g clip-path="url(#clip0_860_2)">
<rect width="512" height="512" rx="100" fill="white"/>
<path d="M188.6 273.05C178.4 277.55 165.8 281.9 150.8 286.1C135.8 290.3 119.45 292.4 101.75 292.4C86.75 292.4 74 290 63.5 285.2C53 280.4 45.05 273.5 39.65 264.5C34.25 255.2 31.55 243.95 31.55 230.75C31.55 224.45 32 218.6 32.9 213.2C33.8 207.5 35 201.35 36.5 194.75L60.35 82.7H100.4L77 193.85C75.8 199.85 74.75 205.4 73.85 210.5C72.95 215.3 72.5 219.35 72.5 222.65C72.5 233.75 75.5 242.3 81.5 248.3C87.5 254 97.7 256.85 112.1 256.85C127.1 256.85 141.8 255.05 156.2 251.45C170.9 247.55 184.25 243.5 196.25 239.3L228.65 82.7H269.15L201.2 404H160.7L188.6 273.05Z" fill="#151515"/>
<path d="M487.922 182.55C491.822 182.55 494.822 184.35 496.922 187.95C499.322 191.55 500.522 196.35 500.522 202.35C500.522 215.25 496.322 224.1 487.922 228.9C453.722 248.7 423.422 267.6 397.022 285.6C399.122 294 400.172 303.9 400.172 315.3C400.172 342.9 394.922 369.9 384.422 396.3C374.222 423 360.422 444.75 343.022 461.55C325.922 478.35 307.772 486.75 288.572 486.75C272.072 486.75 259.322 482.1 250.322 472.8C241.322 463.8 236.822 450.9 236.822 434.1C236.822 408.6 244.472 383.85 259.772 359.85C275.072 335.85 301.922 308.85 340.322 278.85C337.622 274.95 333.872 271.5 329.072 268.5C324.572 265.5 318.422 262.2 310.622 258.6C299.822 253.8 292.022 248.55 287.222 242.85C282.422 237.15 280.022 230.85 280.022 223.95C280.022 213.75 283.022 206.25 289.022 201.45C292.022 199.05 296.972 196.65 303.872 194.25C311.072 191.55 315.422 189.9 316.922 189.3C331.322 184.2 343.322 179.4 352.922 174.9C362.822 170.1 371.372 163.8 378.572 156C386.072 148.2 389.822 138.75 389.822 127.65C389.822 121.35 388.022 116.55 384.422 113.25C380.822 109.95 374.822 108.3 366.422 108.3C358.922 108.3 352.472 109.35 347.072 111.45C341.972 113.25 336.122 116.1 329.522 120C324.122 122.7 319.772 124.8 316.472 126.3C313.472 127.5 310.022 128.1 306.122 128.1C294.422 128.1 288.572 122.4 288.572 111C288.572 103.5 291.872 96.45 298.472 89.85C305.372 83.25 315.122 78 327.722 74.1C340.322 70.2 355.022 68.25 371.822 68.25C393.122 68.25 408.872 73.35 419.072 83.55C429.572 93.75 434.822 107.1 434.822 123.6C434.822 148.8 425.222 169.35 406.022 185.25C387.122 201.15 362.672 213.45 332.672 222.15C353.672 229.05 369.422 238.35 379.922 250.05C406.622 231.15 439.172 209.85 477.572 186.15C481.472 183.75 484.922 182.55 487.922 182.55ZM349.322 321.6C303.722 360 280.922 394.95 280.922 426.45C280.922 438.45 285.122 444.45 293.522 444.45C300.722 444.45 308.672 437.7 317.372 424.2C326.372 411 333.872 394.95 339.872 376.05C346.172 357.15 349.322 340.5 349.322 326.1V321.6Z" fill="#151515"/>
</g>
<defs>
<clipPath id="clip0_860_2">
<rect width="512" height="512" fill="white"/>
</clipPath>
</defs>
</svg>
