<svg width="512" height="512" viewBox="0 0 512 512" fill="none" xmlns="http://www.w3.org/2000/svg">
<g clip-path="url(#clip0_861_2)">
<rect width="512" height="512" rx="100" fill="white"/>
<rect width="291" height="512" rx="100" fill="#0E0E0E"/>
<path d="M181.957 236V144.25L185.457 137C185.457 144.333 183.124 151 178.457 157C173.79 163 167.457 167.75 159.457 171.25C151.457 174.75 142.457 176.5 132.457 176.5C113.457 176.5 98.8737 171.333 88.707 161C78.5404 150.667 73.457 136.667 73.457 119V58.5H94.957V119C94.957 130.167 98.1237 139.083 104.457 145.75C110.79 152.25 120.124 155.5 132.457 155.5C142.29 155.5 150.874 153.917 158.207 150.75C165.707 147.583 171.54 143.25 175.707 137.75C179.874 132.25 181.957 125.917 181.957 118.75V58.5H203.457V236H181.957Z" fill="white"/>
<path d="M385.345 220.4C375.345 220.4 366.679 218.133 359.345 213.6C352.145 209.067 346.545 202.667 342.545 194.4C338.679 186 336.745 176.2 336.745 165C336.745 153.8 338.679 144.067 342.545 135.8C346.545 127.533 352.079 121.133 359.145 116.6C366.345 111.933 374.812 109.6 384.545 109.6C393.745 109.6 401.879 111.8 408.945 116.2C416.012 120.467 421.479 126.733 425.345 135C429.345 143.267 431.345 153.333 431.345 165.2V170.2H354.345C355.012 181.533 358.012 190.067 363.345 195.8C368.812 201.533 376.145 204.4 385.345 204.4C392.279 204.4 397.945 202.8 402.345 199.6C406.879 196.267 410.012 191.933 411.745 186.6L429.745 188C426.945 197.467 421.612 205.267 413.745 211.4C406.012 217.4 396.545 220.4 385.345 220.4ZM354.345 155.4H412.945C412.145 145.133 409.145 137.6 403.945 132.8C398.879 128 392.412 125.6 384.545 125.6C376.412 125.6 369.679 128.133 364.345 133.2C359.145 138.133 355.812 145.533 354.345 155.4ZM359.145 95.8V76.2H376.745V95.8H359.145ZM393.945 95.8V76.2H411.545V95.8H393.945Z" fill="black"/>
<path d="M145.105 421C134.439 421 125.022 419.417 116.855 416.25C108.855 412.917 102.605 408.25 98.1055 402.25C93.6055 396.25 91.1055 389.167 90.6055 381L112.605 380C113.105 386.333 116.272 391.417 122.105 395.25C127.939 399.083 135.605 401 145.105 401C154.939 401 162.772 399.167 168.605 395.5C174.439 391.833 177.355 386.917 177.355 380.75C177.355 373.417 174.605 367.75 169.105 363.75C163.772 359.583 156.605 357.583 147.605 357.75L133.855 358V338L147.605 338.25C155.272 338.417 161.355 336.833 165.855 333.5C170.522 330 172.855 325.417 172.855 319.75C172.855 314.417 170.355 310.25 165.355 307.25C160.355 304.083 153.605 302.5 145.105 302.5C137.439 302.5 131.189 303.917 126.355 306.75C121.522 309.583 118.772 313.417 118.105 318.25L95.3555 317C96.6888 306.333 101.772 297.917 110.605 291.75C119.605 285.583 131.105 282.5 145.105 282.5C160.439 282.5 172.522 285.833 181.355 292.5C190.355 299.167 194.855 308.25 194.855 319.75C194.855 326.917 191.772 333.083 185.605 338.25C179.605 343.25 171.355 346.667 160.855 348.5L161.105 345.25C172.939 347.25 182.272 351.583 189.105 358.25C195.939 364.75 199.355 372.667 199.355 382C199.355 394 194.439 403.5 184.605 410.5C174.939 417.5 161.772 421 145.105 421Z" fill="white"/>
<path d="M373.522 412.4C362.589 412.4 353.855 409.867 347.322 404.8C340.922 399.733 337.722 392.667 337.722 383.6C337.722 374.533 340.389 367.4 345.722 362.2C351.055 357 359.522 353.333 371.122 351.2L408.722 344.2C408.722 335.267 406.589 328.6 402.322 324.2C398.189 319.8 391.922 317.6 383.522 317.6C376.189 317.6 370.389 319.267 366.122 322.6C361.855 325.8 358.922 330.467 357.322 336.6L339.522 335.2C341.522 325.2 346.322 317.133 353.922 311C361.655 304.733 371.522 301.6 383.522 301.6C397.122 301.6 407.522 305.467 414.722 313.2C421.922 320.8 425.522 331.333 425.522 344.8V388.6C425.522 391 425.922 392.733 426.722 393.8C427.655 394.733 429.122 395.2 431.122 395.2H435.322V410C434.789 410.133 433.922 410.2 432.722 410.2C431.522 410.333 430.255 410.4 428.922 410.4C424.122 410.4 420.189 409.667 417.122 408.2C414.189 406.6 412.055 404.2 410.722 401C409.389 397.667 408.722 393.333 408.722 388L410.722 388.4C409.789 392.933 407.522 397.067 403.922 400.8C400.322 404.4 395.855 407.267 390.522 409.4C385.189 411.4 379.522 412.4 373.522 412.4ZM375.122 397.6C382.189 397.6 388.189 396.267 393.122 393.6C398.189 390.8 402.055 387.067 404.722 382.4C407.389 377.6 408.722 372.267 408.722 366.4V358.8L374.322 365.2C367.122 366.533 362.122 368.6 359.322 371.4C356.655 374.067 355.322 377.6 355.322 382C355.322 386.933 357.055 390.8 360.522 393.6C364.122 396.267 368.989 397.6 375.122 397.6Z" fill="black"/>
</g>
<defs>
<clipPath id="clip0_861_2">
<rect width="512" height="512" fill="white"/>
</clipPath>
</defs>
</svg>
