<svg width="512" height="512" viewBox="0 0 512 512" fill="none" xmlns="http://www.w3.org/2000/svg">
<g clip-path="url(#clip0_861_2)">
<rect width="512" height="512" rx="100" fill="#0E0E0E"/>
<path d="M177.566 218V144.6L180.366 138.8C180.366 144.667 178.499 150 174.766 154.8C171.032 159.6 165.966 163.4 159.566 166.2C153.166 169 145.966 170.4 137.966 170.4C122.766 170.4 111.099 166.267 102.966 158C94.8323 149.733 90.7656 138.533 90.7656 124.4V76H107.966V124.4C107.966 133.333 110.499 140.467 115.566 145.8C120.632 151 128.099 153.6 137.966 153.6C145.832 153.6 152.699 152.333 158.566 149.8C164.566 147.267 169.232 143.8 172.566 139.4C175.899 135 177.566 129.933 177.566 124.2V76H194.766V218H177.566Z" fill="white"/>
<path d="M342.345 220.4C332.345 220.4 323.679 218.133 316.345 213.6C309.145 209.067 303.545 202.667 299.545 194.4C295.679 186 293.745 176.2 293.745 165C293.745 153.8 295.679 144.067 299.545 135.8C303.545 127.533 309.079 121.133 316.145 116.6C323.345 111.933 331.812 109.6 341.545 109.6C350.745 109.6 358.879 111.8 365.945 116.2C373.012 120.467 378.479 126.733 382.345 135C386.345 143.267 388.345 153.333 388.345 165.2V170.2H311.345C312.012 181.533 315.012 190.067 320.345 195.8C325.812 201.533 333.145 204.4 342.345 204.4C349.279 204.4 354.945 202.8 359.345 199.6C363.879 196.267 367.012 191.933 368.745 186.6L386.745 188C383.945 197.467 378.612 205.267 370.745 211.4C363.012 217.4 353.545 220.4 342.345 220.4ZM311.345 155.4H369.945C369.145 145.133 366.145 137.6 360.945 132.8C355.879 128 349.412 125.6 341.545 125.6C333.412 125.6 326.679 128.133 321.345 133.2C316.145 138.133 312.812 145.533 311.345 155.4ZM316.145 95.8V76.2H333.745V95.8H316.145ZM350.945 95.8V76.2H368.545V95.8H350.945Z" fill="white"/>
<path d="M148.084 412.4C139.551 412.4 132.018 411.133 125.484 408.6C119.084 405.933 114.084 402.2 110.484 397.4C106.884 392.6 104.884 386.933 104.484 380.4L122.084 379.6C122.484 384.667 125.018 388.733 129.684 391.8C134.351 394.867 140.484 396.4 148.084 396.4C155.951 396.4 162.218 394.933 166.884 392C171.551 389.067 173.884 385.133 173.884 380.2C173.884 374.333 171.684 369.8 167.284 366.6C163.018 363.267 157.284 361.667 150.084 361.8L139.084 362V346L150.084 346.2C156.218 346.333 161.084 345.067 164.684 342.4C168.418 339.6 170.284 335.933 170.284 331.4C170.284 327.133 168.284 323.8 164.284 321.4C160.284 318.867 154.884 317.6 148.084 317.6C141.951 317.6 136.951 318.733 133.084 321C129.218 323.267 127.018 326.333 126.484 330.2L108.284 329.2C109.351 320.667 113.418 313.933 120.484 309C127.684 304.067 136.884 301.6 148.084 301.6C160.351 301.6 170.018 304.267 177.084 309.6C184.284 314.933 187.884 322.2 187.884 331.4C187.884 337.133 185.418 342.067 180.484 346.2C175.684 350.2 169.084 352.933 160.684 354.4L160.884 351.8C170.351 353.4 177.818 356.867 183.284 362.2C188.751 367.4 191.484 373.733 191.484 381.2C191.484 390.8 187.551 398.4 179.684 404C171.951 409.6 161.418 412.4 148.084 412.4Z" fill="white"/>
<path d="M330.522 412.4C319.589 412.4 310.855 409.867 304.322 404.8C297.922 399.733 294.722 392.667 294.722 383.6C294.722 374.533 297.389 367.4 302.722 362.2C308.055 357 316.522 353.333 328.122 351.2L365.722 344.2C365.722 335.267 363.589 328.6 359.322 324.2C355.189 319.8 348.922 317.6 340.522 317.6C333.189 317.6 327.389 319.267 323.122 322.6C318.855 325.8 315.922 330.467 314.322 336.6L296.522 335.2C298.522 325.2 303.322 317.133 310.922 311C318.655 304.733 328.522 301.6 340.522 301.6C354.122 301.6 364.522 305.467 371.722 313.2C378.922 320.8 382.522 331.333 382.522 344.8V388.6C382.522 391 382.922 392.733 383.722 393.8C384.655 394.733 386.122 395.2 388.122 395.2H392.322V410C391.789 410.133 390.922 410.2 389.722 410.2C388.522 410.333 387.255 410.4 385.922 410.4C381.122 410.4 377.189 409.667 374.122 408.2C371.189 406.6 369.055 404.2 367.722 401C366.389 397.667 365.722 393.333 365.722 388L367.722 388.4C366.789 392.933 364.522 397.067 360.922 400.8C357.322 404.4 352.855 407.267 347.522 409.4C342.189 411.4 336.522 412.4 330.522 412.4ZM332.122 397.6C339.189 397.6 345.189 396.267 350.122 393.6C355.189 390.8 359.055 387.067 361.722 382.4C364.389 377.6 365.722 372.267 365.722 366.4V358.8L331.322 365.2C324.122 366.533 319.122 368.6 316.322 371.4C313.655 374.067 312.322 377.6 312.322 382C312.322 386.933 314.055 390.8 317.522 393.6C321.122 396.267 325.989 397.6 332.122 397.6Z" fill="white"/>
</g>
<defs>
<clipPath id="clip0_861_2">
<rect width="512" height="512" fill="white"/>
</clipPath>
</defs>
</svg>
